<?xml version="1.0" standalone="no"?>
<!DOCTYPE svg PUBLIC "-//W3C//DTD SVG 20010904//EN"
 "http://www.w3.org/TR/2001/REC-SVG-20010904/DTD/svg10.dtd">
<svg version="1.0" xmlns="http://www.w3.org/2000/svg"
 width="120.000000pt" height="120.000000pt" viewBox="0 0 120.000000 120.000000"
 preserveAspectRatio="xMidYMid meet">
<metadata>
Created by potrace 1.14, written by Peter Selinger 2001-2017
</metadata>
<g transform="translate(0.000000,120.000000) scale(0.100000,-0.100000)"
fill="#000000" stroke="none">
<path d="M459 849 c-10 -10 -19 -23 -19 -28 0 -5 -34 -80 -75 -166 -41 -86
-75 -162 -75 -169 0 -34 139 -107 232 -121 23 -4 45 -8 48 -10 3 -2 34 -6 70
-10 36 -3 82 -8 103 -10 24 -3 37 0 38 8 2 17 6 122 8 179 1 43 3 47 28 50 25
3 26 4 10 20 -9 9 -17 19 -17 22 0 3 20 17 45 32 25 14 45 29 45 33 0 4 -25
13 -55 20 -48 11 -55 16 -55 36 0 14 -13 40 -30 58 -35 40 -111 65 -215 72
-56 3 -70 0 -86 -16z"/>
</g>
</svg>
